Coordinates
version=1
nRows=9
nColumns=42
inDegrees=yes

Units are S.I. units (second, meters, Newtons, ...)
If the header above contains a line with 'inDegrees', this indicates whether rotational values are in degrees (yes) or radians (no).

endheader
time	pelvis_tilt	pelvis_list	pelvis_rotation	pelvis_tx	pelvis_ty	pelvis_tz	hip_flexion_r	hip_adduction_r	hip_rotation_r	knee_angle_r	knee_adduction_r	knee_angle_r_beta	ankle_angle_r	subtalar_angle_r	mtp_angle_r	hip_flexion_l	hip_adduction_l	hip_rotation_l	knee_angle_l	knee_adduction_l	knee_angle_l_beta	ankle_angle_l	subtalar_angle_l	mtp_angle_l	lumbar_extension	lumbar_bending	lumbar_rotation	arm_flex_r	arm_add_r	arm_rot_r	elbow_flex_r	pro_sup_r	wrist_flex_r	wrist_dev_r	arm_flex_l	arm_add_l	arm_rot_l	elbow_flex_l	pro_sup_l	wrist_flex_l	wrist_dev_l
      0.17000000	      6.49183662	      0.12817092	      4.91876022	     -1.71445596	      0.87613162	      0.01325428	     30.41057246	     -6.41893693	    -16.46497068	     38.34021927	      2.08469172	      0.66916306	      9.62303298	     10.89123307	     -9.30535961	     -8.17079892	     -2.57091651	    -23.53504799	     31.34398530	     -3.57753050	      0.54705574	     34.61565494	     33.54017137	     -9.30535961	    -20.37487696	      2.49679642	     -6.42729003	     -5.20410908	     -5.74898522	    -25.83479350	     29.63455068	     90.00000001	      0.00000000	      0.00000000	      2.05348304	     -9.77601175	    -16.52244059	     39.65763404	     90.00000001	      0.00000000	      0.00000000
      0.18000000	      6.50400596	     -0.09226552	      4.86485044	     -1.70514760	      0.87511141	      0.01445421	     30.18520064	     -6.00351227	    -16.26012220	     38.98924436	      1.99726331	      0.68049069	      9.51231561	     10.87259207	     -9.30186241	     -8.73304978	     -2.73932394	    -23.37522694	     31.46827366	     -3.90116679	      0.54922499	     34.61642538	     33.48923445	     -9.30186241	    -20.21791811	      2.75717987	     -6.25957978	     -5.32896335	     -5.71579168	    -25.84538346	     29.52915191	     90.00000001	      0.00000000	      0.00000000	      1.61511757	     -9.67757459	    -16.55632121	     39.49254342	     90.00000001	      0.00000000	      0.00000000
      0.19000000	      6.57411268	     -0.33763607	      4.72327217	     -1.69566617	      0.87424784	      0.01572302	     29.97739855	     -5.56000731	    -16.06460535	     39.85620907	      1.88860011	      0.69562208	      9.34269202	     10.76607189	     -9.29724028	     -9.41008274	     -2.99563219	    -23.38498848	     31.58265931	     -4.10870179	      0.55122139	     34.62613681	     33.32509188	     -9.29724028	    -20.10546350	      3.06538848	     -6.06270400	     -5.32961107	     -5.82519511	    -25.86117142	     29.41286808	     90.00000001	      0.00000000	      0.00000000	      1.17221988	     -9.52912487	    -16.61003364	     39.34120752	     90.00000001	      0.00000000	      0.00000000
      0.20000000	      6.66530971	     -0.58684191	      4.50596643	     -1.68612962	      0.87358789	      0.01717231	     29.74884407	     -5.06294091	    -15.71330441	     40.74024344	      1.88219022	      0.71105139	      8.49967377	      9.01328701	     -9.23304097	    -10.12402540	     -3.29635043	    -23.53705456	     31.72644977	     -4.20650454	      0.55373101	     34.50765351	     32.20825760	     -9.23304097	    -20.01821851	      3.32308865	     -5.85267048	     -4.83234643	     -6.04507152	    -25.84164644	     28.28906735	     90.00000001	      0.00000000	      0.00000000	      0.67516739	     -9.22235408	    -17.43774982	     39.55649428	     90.00000001	      0.00000000	      0.00000000
      0.21000000	      6.73352225	     -0.86043156	      4.30176606	     -1.67650672	      0.87309258	      0.01865030	     29.43239910	     -4.57575706	    -15.40242053	     41.44257545	      1.95485887	      0.72330939	      8.52609119	      8.77815674	     -9.21152313	    -10.69855088	     -3.57747502	    -23.56081729	     32.04172398	     -4.42971888	      0.55923358	     34.22903235	     31.82358199	     -9.21152313	    -19.88964492	      3.62960017	     -5.60391858	     -4.76869539	     -6.14166632	    -25.87729194	     28.11086222	     90.00000001	      0.00000000	      0.00000000	      0.20219854	     -9.01500063	    -17.71758218	     39.41476194	     90.00000001	      0.00000000	      0.00000000
      0.22000000	      6.78789155	     -1.16635605	      4.09424664	     -1.66686006	      0.87280225	      0.02019599	     29.06526418	     -4.05057686	    -15.15965805	     42.02565655	      2.02153938	      0.73348608	      8.61818691	      8.46948529	     -9.18102123	    -11.18019180	     -3.89942749	    -23.50590639	     32.48732500	     -4.63412818	      0.56701079	     33.61723249	     31.10990105	     -9.18102123	    -19.74710180	      3.98198870	     -5.38145545	     -4.57098802	     -6.27241092	    -25.89141389	     27.74335817	     90.00000001	      0.00000000	      0.00000000	     -0.32527412	     -8.77132722	    -18.21153351	     39.33204931	     90.00000001	      0.00000000	      0.00000000
      0.23000000	      6.82719101	     -1.43052337	      3.87987020	     -1.65719545	      0.87276442	      0.02176518	     28.67893649	     -3.61275808	    -14.94086838	     42.58163446	      2.15355553	      0.74318972	      8.78086500	      8.25202321	     -9.10440770	    -11.62266553	     -4.11613027	    -23.04623580	     32.96732583	     -4.70578458	      0.57538838	     32.76254809	     29.74707610	     -9.10440770	    -19.58183783	      4.27171864	     -5.23362145	     -4.19766520	     -6.41577951	    -25.92335060	     27.10001026	     90.00000001	      0.00000000	      0.00000000	     -0.86769196	     -8.38020427	    -19.35680328	     39.28508275	     90.00000001	      0.00000000	      0.00000000
      0.24000000	      6.90927027	     -1.74347787	      3.64688051	     -1.64746498	      0.87293616	      0.02346304	     28.17998857	     -3.14053474	    -14.94439791	     43.03084652	      2.22043771	      0.75102995	      9.09392504	      8.33169587	     -9.08680203	    -11.98756564	     -4.54413970	    -23.06945127	     33.69749798	     -4.86726274	      0.58813229	     31.99281920	     29.29045669	     -9.08680203	    -19.46083745	      4.62016349	     -4.99853590	     -4.03791229	     -6.52979581	    -25.92772372	     27.01204013	     90.00000001	      0.00000000	      0.00000000	     -1.41089459	     -8.21515038	    -19.60499976	     39.08552295	     90.00000001	      0.00000000	      0.00000000
      0.25000000	      6.98677704	     -1.98182722	      3.42797616	     -1.63779946	      0.87339512	      0.02513005	     27.63305895	     -2.79376983	    -15.18077670	     43.41240835	      2.19085055	      0.75768946	      9.76005106	      9.11585796	     -9.01146817	    -12.29836952	     -4.76881208	    -22.47374190	     34.47241651	     -4.89492002	      0.60165717	     30.43988736	     27.50216546	     -9.01146817	    -19.35287601	      4.88965683	     -4.85892430	     -3.62283141	     -6.66439014	    -25.88185197	     26.52344801	     90.00000001	      0.00000000	      0.00000000	     -1.91108871	     -7.85657597	    -20.62947425	     38.95420452	     90.00000001	      0.00000000	      0.00000000
